<svg version="1.0" preserveAspectRatio="xMidYMid meet" viewBox="250.39964004499438 274.7519976256 937.8627671541058 205.739998222" zoomAndPan="magnify" xmlns:xlink="http://www.w3.org/1999/xlink" xmlns="http://www.w3.org/2000/svg" style="max-height: 500px" width="937.8627671541058" height="205.739998222"><defs><g/><clipPath id="0f91adc41a"><path clip-rule="nonzero" d="M 515 404 L 620 404 L 620 475.125 L 515 475.125 Z M 515 404"/></clipPath><clipPath id="61c9130374"><path clip-rule="nonzero" d="M 501 280.125 L 596 280.125 L 596 356 L 501 356 Z M 501 280.125"/></clipPath></defs><path fill-rule="evenodd" fill-opacity="1" d="M 498.59375 417.917969 L 459.125 418.027344 C 450.945312 428.84375 445.523438 440.109375 450.796875 449.929688 C 456.648438 460.816406 463.628906 463.34375 474.152344 463.292969 L 498.59375 463.183594 Z M 498.59375 417.917969" fill="#1a5e37"/><path fill-rule="evenodd" fill-opacity="1" d="M 446.914062 447.070312 C 439.472656 434.191406 432.03125 421.308594 424.585938 408.429688 C 421.28125 402.710938 420.027344 398.238281 421.199219 391.765625 C 423.5 379.050781 432.96875 364.917969 439.265625 354.15625 L 430 348.5 L 474.578125 343.921875 L 490.710938 385.574219 L 477.472656 377.488281 L 450.953125 420.285156 C 446.375 427.667969 443.324219 438.324219 446.914062 447.070312 Z M 446.914062 447.070312" fill="#6eb030"/><path fill-rule="evenodd" fill-opacity="1" d="M 568.019531 381.0625 L 587.847656 415.15625 C 601.3125 416.828125 613.789062 415.886719 619.664062 406.410156 C 626.175781 395.90625 624.875 388.605469 619.570312 379.519531 L 607.253906 358.429688 Z M 568.019531 381.0625" fill="#1a5e37"/><g clip-path="url(#0f91adc41a)"><path fill-rule="evenodd" fill-opacity="1" d="M 619.125 411.199219 C 611.683594 424.082031 604.242188 436.960938 596.796875 449.84375 C 593.492188 455.558594 590.246094 458.882812 584.050781 461.105469 C 571.878906 465.472656 554.890625 464.34375 542.417969 464.277344 L 542.144531 475.121094 L 515.890625 438.839844 L 543.921875 404.054688 L 543.535156 419.554688 L 593.890625 421.101562 C 602.578125 421.371094 613.339844 418.683594 619.125 411.199219 Z M 619.125 411.199219" fill="#6eb030"/></g><path fill-rule="evenodd" fill-opacity="1" d="M 501.359375 339.417969 L 520.996094 305.214844 C 515.714844 292.726562 508.660156 282.402344 497.511719 282.058594 C 485.148438 281.671875 479.46875 286.453125 474.25 295.585938 L 462.125 316.785156 Z M 501.359375 339.417969" fill="#1a5e37"/><g clip-path="url(#61c9130374)"><path fill-rule="evenodd" fill-opacity="1" d="M 501.929688 280.125 C 516.816406 280.125 531.703125 280.128906 546.589844 280.125 C 553.195312 280.125 557.699219 281.277344 562.726562 285.527344 C 572.597656 293.875 580.113281 309.136719 586.289062 319.964844 L 595.828125 314.777344 L 577.503906 355.636719 L 533.339844 348.769531 L 546.964844 341.359375 L 523.128906 297.011719 C 519.015625 289.363281 511.308594 281.394531 501.929688 280.125 Z M 501.929688 280.125" fill="#6eb030"/></g><g fill-opacity="1" fill="#ffffff"><g transform="translate(252.879104, 461.42825)"><g><path d="M 76.078125 -175.546875 C 85.410156 -175.546875 94.535156 -174.1875 103.453125 -171.46875 C 112.367188 -168.75 118.984375 -166.066406 123.296875 -163.421875 L 129.578125 -159.25 L 113.6875 -127.90625 C 112.4375 -128.738281 110.695312 -129.816406 108.46875 -131.140625 C 106.238281 -132.460938 102.054688 -134.238281 95.921875 -136.46875 C 89.796875 -138.695312 84.082031 -139.8125 78.78125 -139.8125 C 72.238281 -139.8125 67.191406 -138.414062 63.640625 -135.625 C 60.085938 -132.84375 58.3125 -129.082031 58.3125 -124.34375 C 58.3125 -121.976562 59.144531 -119.785156 60.8125 -117.765625 C 62.488281 -115.742188 65.34375 -113.582031 69.375 -111.28125 C 73.414062 -108.988281 76.96875 -107.144531 80.03125 -105.75 C 83.101562 -104.351562 87.84375 -102.265625 94.25 -99.484375 C 105.394531 -94.742188 114.90625 -88.296875 122.78125 -80.140625 C 130.65625 -71.992188 134.59375 -62.765625 134.59375 -52.453125 C 134.59375 -42.566406 132.8125 -33.929688 129.25 -26.546875 C 125.695312 -19.160156 120.820312 -13.375 114.625 -9.1875 C 108.425781 -5.007812 101.566406 -1.910156 94.046875 0.109375 C 86.523438 2.128906 78.375 3.140625 69.59375 3.140625 C 62.070312 3.140625 54.6875 2.367188 47.4375 0.828125 C 40.195312 -0.703125 34.132812 -2.613281 29.25 -4.90625 C 24.375 -7.207031 19.984375 -9.472656 16.078125 -11.703125 C 12.179688 -13.929688 9.332031 -15.8125 7.53125 -17.34375 L 4.8125 -19.640625 L 24.453125 -52.671875 C 26.117188 -51.273438 28.414062 -49.492188 31.34375 -47.328125 C 34.269531 -45.171875 39.457031 -42.28125 46.90625 -38.65625 C 54.363281 -35.039062 60.953125 -33.234375 66.671875 -33.234375 C 83.242188 -33.234375 91.53125 -38.875 91.53125 -50.15625 C 91.53125 -52.519531 90.9375 -54.710938 89.75 -56.734375 C 88.570312 -58.753906 86.484375 -60.773438 83.484375 -62.796875 C 80.492188 -64.816406 77.847656 -66.421875 75.546875 -67.609375 C 73.242188 -68.796875 69.476562 -70.609375 64.25 -73.046875 C 59.03125 -75.484375 55.171875 -77.328125 52.671875 -78.578125 C 42.210938 -83.734375 34.128906 -90.175781 28.421875 -97.90625 C 22.710938 -105.644531 19.859375 -113.972656 19.859375 -122.890625 C 19.859375 -138.347656 25.566406 -150.988281 36.984375 -160.8125 C 48.410156 -170.632812 61.441406 -175.546875 76.078125 -175.546875 Z M 76.078125 -175.546875"/></g></g></g><g fill-opacity="1" fill="#ffffff"><g transform="translate(649.602622, 461.42825)"><g><path d="M 155.0625 0 L 146.921875 -102.1875 L 145.875 -102.1875 L 110.546875 -1.046875 L 87.140625 -1.046875 L 51.828125 -102.1875 L 50.78125 -102.1875 L 42.640625 0 L 3.34375 0 L 18.8125 -172.40625 L 60.609375 -172.40625 L 98.84375 -72.9375 L 137.09375 -172.40625 L 178.890625 -172.40625 L 194.359375 0 Z M 155.0625 0"/></g></g></g><g fill-opacity="1" fill="#ffffff"><g transform="translate(847.302854, 461.42825)"><g><path d="M 12.546875 -172.40625 L 75.4375 -172.40625 C 93 -172.40625 107.210938 -167.878906 118.078125 -158.828125 C 128.941406 -149.773438 134.375 -136.609375 134.375 -119.328125 C 134.375 -102.054688 128.867188 -88.507812 117.859375 -78.6875 C 106.859375 -68.863281 92.71875 -63.953125 75.4375 -63.953125 L 51.828125 -63.953125 L 51.828125 0 L 12.546875 0 Z M 51.828125 -95.296875 L 62.90625 -95.296875 C 71.6875 -95.296875 78.894531 -97.070312 84.53125 -100.625 C 90.175781 -104.175781 93 -109.992188 93 -118.078125 C 93 -126.296875 90.175781 -132.179688 84.53125 -135.734375 C 78.894531 -139.285156 71.6875 -141.0625 62.90625 -141.0625 L 51.828125 -141.0625 Z M 51.828125 -95.296875"/></g></g></g><g fill-opacity="1" fill="#ffffff"><g transform="translate(986.487166, 461.42825)"><g><path d="M 51.828125 -172.40625 L 51.828125 0 L 12.546875 0 L 12.546875 -172.40625 Z M 51.828125 -172.40625"/></g></g></g><g fill-opacity="1" fill="#ffffff"><g transform="translate(1046.674913, 461.42825)"><g><path d="M 76.078125 -175.546875 C 85.410156 -175.546875 94.535156 -174.1875 103.453125 -171.46875 C 112.367188 -168.75 118.984375 -166.066406 123.296875 -163.421875 L 129.578125 -159.25 L 113.6875 -127.90625 C 112.4375 -128.738281 110.695312 -129.816406 108.46875 -131.140625 C 106.238281 -132.460938 102.054688 -134.238281 95.921875 -136.46875 C 89.796875 -138.695312 84.082031 -139.8125 78.78125 -139.8125 C 72.238281 -139.8125 67.191406 -138.414062 63.640625 -135.625 C 60.085938 -132.84375 58.3125 -129.082031 58.3125 -124.34375 C 58.3125 -121.976562 59.144531 -119.785156 60.8125 -117.765625 C 62.488281 -115.742188 65.34375 -113.582031 69.375 -111.28125 C 73.414062 -108.988281 76.96875 -107.144531 80.03125 -105.75 C 83.101562 -104.351562 87.84375 -102.265625 94.25 -99.484375 C 105.394531 -94.742188 114.90625 -88.296875 122.78125 -80.140625 C 130.65625 -71.992188 134.59375 -62.765625 134.59375 -52.453125 C 134.59375 -42.566406 132.8125 -33.929688 129.25 -26.546875 C 125.695312 -19.160156 120.820312 -13.375 114.625 -9.1875 C 108.425781 -5.007812 101.566406 -1.910156 94.046875 0.109375 C 86.523438 2.128906 78.375 3.140625 69.59375 3.140625 C 62.070312 3.140625 54.6875 2.367188 47.4375 0.828125 C 40.195312 -0.703125 34.132812 -2.613281 29.25 -4.90625 C 24.375 -7.207031 19.984375 -9.472656 16.078125 -11.703125 C 12.179688 -13.929688 9.332031 -15.8125 7.53125 -17.34375 L 4.8125 -19.640625 L 24.453125 -52.671875 C 26.117188 -51.273438 28.414062 -49.492188 31.34375 -47.328125 C 34.269531 -45.171875 39.457031 -42.28125 46.90625 -38.65625 C 54.363281 -35.039062 60.953125 -33.234375 66.671875 -33.234375 C 83.242188 -33.234375 91.53125 -38.875 91.53125 -50.15625 C 91.53125 -52.519531 90.9375 -54.710938 89.75 -56.734375 C 88.570312 -58.753906 86.484375 -60.773438 83.484375 -62.796875 C 80.492188 -64.816406 77.847656 -66.421875 75.546875 -67.609375 C 73.242188 -68.796875 69.476562 -70.609375 64.25 -73.046875 C 59.03125 -75.484375 55.171875 -77.328125 52.671875 -78.578125 C 42.210938 -83.734375 34.128906 -90.175781 28.421875 -97.90625 C 22.710938 -105.644531 19.859375 -113.972656 19.859375 -122.890625 C 19.859375 -138.347656 25.566406 -150.988281 36.984375 -160.8125 C 48.410156 -170.632812 61.441406 -175.546875 76.078125 -175.546875 Z M 76.078125 -175.546875"/></g></g></g></svg>