<svg version="1.0" preserveAspectRatio="xMidYMid meet" viewBox="167.12260967379078 249.460557844168 1103.082114735658 242.99999789999998" zoomAndPan="magnify" xmlns:xlink="http://www.w3.org/1999/xlink" xmlns="http://www.w3.org/2000/svg" style="max-height: 500px" width="1103.082114735658" height="242.99999789999998"><defs><g/><clipPath id="9494af99b7"><path clip-rule="nonzero" d="M 477 403 L 600 403 L 600 488.457031 L 477 488.457031 Z M 477 403"/></clipPath><clipPath id="dfc855ddb1"><path clip-rule="nonzero" d="M 460 256.390625 L 573 256.390625 L 573 347 L 460 347 Z M 460 256.390625"/></clipPath></defs><path fill-rule="evenodd" fill-opacity="1" d="M 456.507812 420.375 L 409.539062 420.503906 C 399.804688 433.375 393.351562 446.78125 399.628906 458.46875 C 406.589844 471.425781 414.898438 474.429688 427.425781 474.375 L 456.507812 474.242188 Z M 456.507812 420.375" fill="#1a5e37"/><path fill-rule="evenodd" fill-opacity="1" d="M 395.007812 455.066406 C 386.152344 439.738281 377.292969 424.410156 368.4375 409.082031 C 364.503906 402.277344 363.011719 396.953125 364.402344 389.25 C 367.144531 374.117188 378.414062 357.296875 385.90625 344.496094 L 374.878906 337.761719 L 427.929688 332.3125 L 447.128906 381.878906 L 431.375 372.257812 L 399.8125 423.191406 C 394.367188 431.976562 390.734375 444.660156 395.007812 455.066406 Z M 395.007812 455.066406" fill="#6eb030"/><path fill-rule="evenodd" fill-opacity="1" d="M 539.132812 376.511719 L 562.730469 417.085938 C 578.753906 419.078125 593.601562 417.957031 600.589844 406.679688 C 608.34375 394.179688 606.792969 385.488281 600.480469 374.675781 L 585.824219 349.578125 Z M 539.132812 376.511719" fill="#1a5e37"/><g clip-path="url(#9494af99b7)"><path fill-rule="evenodd" fill-opacity="1" d="M 599.953125 412.378906 C 591.09375 427.710938 582.238281 443.039062 573.378906 458.367188 C 569.449219 465.167969 565.582031 469.125 558.210938 471.769531 C 543.722656 476.964844 523.507812 475.625 508.664062 475.542969 L 508.339844 488.449219 L 477.09375 445.273438 L 510.453125 403.875 L 509.996094 422.320312 L 569.921875 424.160156 C 580.257812 424.480469 593.066406 421.28125 599.953125 412.378906 Z M 599.953125 412.378906" fill="#6eb030"/></g><path fill-rule="evenodd" fill-opacity="1" d="M 459.800781 326.949219 L 483.171875 286.246094 C 476.882812 271.386719 468.492188 259.101562 455.222656 258.6875 C 440.507812 258.230469 433.75 263.917969 427.539062 274.785156 L 413.109375 300.019531 Z M 459.800781 326.949219" fill="#1a5e37"/><g clip-path="url(#dfc855ddb1)"><path fill-rule="evenodd" fill-opacity="1" d="M 460.480469 256.390625 C 478.195312 256.390625 495.910156 256.390625 513.625 256.390625 C 521.488281 256.390625 526.851562 257.757812 532.832031 262.816406 C 544.578125 272.753906 553.523438 290.914062 560.875 303.800781 L 572.222656 297.625 L 550.421875 346.253906 L 497.859375 338.082031 L 514.074219 329.261719 L 485.707031 276.484375 C 480.816406 267.382812 471.640625 257.898438 460.480469 256.390625 Z M 460.480469 256.390625" fill="#6eb030"/></g><g fill-opacity="1" fill="#000000"><g transform="translate(164.090724, 472.153907)"><g><path d="M 90.53125 -208.921875 C 101.644531 -208.921875 112.503906 -207.300781 123.109375 -204.0625 C 133.722656 -200.832031 141.601562 -197.644531 146.75 -194.5 L 154.203125 -189.53125 L 135.296875 -152.21875 C 133.804688 -153.207031 131.734375 -154.488281 129.078125 -156.0625 C 126.429688 -157.644531 121.457031 -159.757812 114.15625 -162.40625 C 106.863281 -165.0625 100.066406 -166.390625 93.765625 -166.390625 C 85.972656 -166.390625 79.960938 -164.726562 75.734375 -161.40625 C 71.503906 -158.09375 69.390625 -153.617188 69.390625 -147.984375 C 69.390625 -145.171875 70.382812 -142.5625 72.375 -140.15625 C 74.363281 -137.75 77.757812 -135.175781 82.5625 -132.4375 C 87.375 -129.707031 91.601562 -127.507812 95.25 -125.84375 C 98.90625 -124.1875 104.546875 -121.703125 112.171875 -118.390625 C 125.429688 -112.753906 136.742188 -105.082031 146.109375 -95.375 C 155.484375 -85.675781 160.171875 -74.691406 160.171875 -62.421875 C 160.171875 -50.648438 158.054688 -40.367188 153.828125 -31.578125 C 149.597656 -22.796875 143.796875 -15.914062 136.421875 -10.9375 C 129.046875 -5.96875 120.878906 -2.28125 111.921875 0.125 C 102.972656 2.53125 93.273438 3.734375 82.828125 3.734375 C 73.867188 3.734375 65.078125 2.820312 56.453125 1 C 47.835938 -0.820312 40.625 -3.101562 34.8125 -5.84375 C 29.007812 -8.582031 23.785156 -11.273438 19.140625 -13.921875 C 14.503906 -16.578125 11.109375 -18.816406 8.953125 -20.640625 L 5.71875 -23.375 L 29.09375 -62.671875 C 31.082031 -61.015625 33.816406 -58.898438 37.296875 -56.328125 C 40.785156 -53.765625 46.960938 -50.328125 55.828125 -46.015625 C 64.703125 -41.703125 72.539062 -39.546875 79.34375 -39.546875 C 99.070312 -39.546875 108.9375 -46.257812 108.9375 -59.6875 C 108.9375 -62.507812 108.226562 -65.125 106.8125 -67.53125 C 105.40625 -69.9375 102.921875 -72.335938 99.359375 -74.734375 C 95.796875 -77.140625 92.644531 -79.046875 89.90625 -80.453125 C 87.175781 -81.867188 82.703125 -84.023438 76.484375 -86.921875 C 70.265625 -89.828125 65.660156 -92.023438 62.671875 -93.515625 C 50.234375 -99.648438 40.613281 -107.316406 33.8125 -116.515625 C 27.019531 -125.722656 23.625 -135.632812 23.625 -146.25 C 23.625 -164.65625 30.421875 -179.703125 44.015625 -191.390625 C 57.617188 -203.078125 73.125 -208.921875 90.53125 -208.921875 Z M 90.53125 -208.921875"/></g></g></g><g fill-opacity="1" fill="#000000"><g transform="translate(636.221686, 472.153907)"><g><path d="M 184.546875 0 L 174.84375 -121.625 L 173.609375 -121.625 L 131.578125 -1.25 L 103.71875 -1.25 L 61.6875 -121.625 L 60.4375 -121.625 L 50.734375 0 L 3.984375 0 L 22.390625 -205.1875 L 72.125 -205.1875 L 117.640625 -86.796875 L 163.15625 -205.1875 L 212.90625 -205.1875 L 231.3125 0 Z M 184.546875 0"/></g></g></g><g fill-opacity="1" fill="#000000"><g transform="translate(871.499965, 472.153907)"><g><path d="M 14.921875 -205.1875 L 89.78125 -205.1875 C 110.675781 -205.1875 127.585938 -199.796875 140.515625 -189.015625 C 153.453125 -178.242188 159.921875 -162.578125 159.921875 -142.015625 C 159.921875 -121.453125 153.367188 -105.328125 140.265625 -93.640625 C 127.171875 -81.953125 110.34375 -76.109375 89.78125 -76.109375 L 61.6875 -76.109375 L 61.6875 0 L 14.921875 0 Z M 61.6875 -113.421875 L 74.859375 -113.421875 C 85.304688 -113.421875 93.890625 -115.53125 100.609375 -119.75 C 107.328125 -123.976562 110.6875 -130.90625 110.6875 -140.53125 C 110.6875 -150.3125 107.328125 -157.316406 100.609375 -161.546875 C 93.890625 -165.773438 85.304688 -167.890625 74.859375 -167.890625 L 61.6875 -167.890625 Z M 61.6875 -113.421875"/></g></g></g><g fill-opacity="1" fill="#000000"><g transform="translate(1037.139858, 472.153907)"><g><path d="M 61.6875 -205.1875 L 61.6875 0 L 14.921875 0 L 14.921875 -205.1875 Z M 61.6875 -205.1875"/></g></g></g><g fill-opacity="1" fill="#000000"><g transform="translate(1108.767844, 472.153907)"><g><path d="M 90.53125 -208.921875 C 101.644531 -208.921875 112.503906 -207.300781 123.109375 -204.0625 C 133.722656 -200.832031 141.601562 -197.644531 146.75 -194.5 L 154.203125 -189.53125 L 135.296875 -152.21875 C 133.804688 -153.207031 131.734375 -154.488281 129.078125 -156.0625 C 126.429688 -157.644531 121.457031 -159.757812 114.15625 -162.40625 C 106.863281 -165.0625 100.066406 -166.390625 93.765625 -166.390625 C 85.972656 -166.390625 79.960938 -164.726562 75.734375 -161.40625 C 71.503906 -158.09375 69.390625 -153.617188 69.390625 -147.984375 C 69.390625 -145.171875 70.382812 -142.5625 72.375 -140.15625 C 74.363281 -137.75 77.757812 -135.175781 82.5625 -132.4375 C 87.375 -129.707031 91.601562 -127.507812 95.25 -125.84375 C 98.90625 -124.1875 104.546875 -121.703125 112.171875 -118.390625 C 125.429688 -112.753906 136.742188 -105.082031 146.109375 -95.375 C 155.484375 -85.675781 160.171875 -74.691406 160.171875 -62.421875 C 160.171875 -50.648438 158.054688 -40.367188 153.828125 -31.578125 C 149.597656 -22.796875 143.796875 -15.914062 136.421875 -10.9375 C 129.046875 -5.96875 120.878906 -2.28125 111.921875 0.125 C 102.972656 2.53125 93.273438 3.734375 82.828125 3.734375 C 73.867188 3.734375 65.078125 2.820312 56.453125 1 C 47.835938 -0.820312 40.625 -3.101562 34.8125 -5.84375 C 29.007812 -8.582031 23.785156 -11.273438 19.140625 -13.921875 C 14.503906 -16.578125 11.109375 -18.816406 8.953125 -20.640625 L 5.71875 -23.375 L 29.09375 -62.671875 C 31.082031 -61.015625 33.816406 -58.898438 37.296875 -56.328125 C 40.785156 -53.765625 46.960938 -50.328125 55.828125 -46.015625 C 64.703125 -41.703125 72.539062 -39.546875 79.34375 -39.546875 C 99.070312 -39.546875 108.9375 -46.257812 108.9375 -59.6875 C 108.9375 -62.507812 108.226562 -65.125 106.8125 -67.53125 C 105.40625 -69.9375 102.921875 -72.335938 99.359375 -74.734375 C 95.796875 -77.140625 92.644531 -79.046875 89.90625 -80.453125 C 87.175781 -81.867188 82.703125 -84.023438 76.484375 -86.921875 C 70.265625 -89.828125 65.660156 -92.023438 62.671875 -93.515625 C 50.234375 -99.648438 40.613281 -107.316406 33.8125 -116.515625 C 27.019531 -125.722656 23.625 -135.632812 23.625 -146.25 C 23.625 -164.65625 30.421875 -179.703125 44.015625 -191.390625 C 57.617188 -203.078125 73.125 -208.921875 90.53125 -208.921875 Z M 90.53125 -208.921875"/></g></g></g></svg>